<svg id="レイヤー_1" width="50px" height="50px" xmlns="http://www.w3.org/2000/svg" xmlns:xlink="http://www.w3.org/1999/xlink" x="0px" y="0px" viewBox="0 0 910.4 854" style="enable-background:new 0 0 910.4 854;">
	<g transform="translate(0.000000,1014.000000) scale(0.100000,-0.100000)">
		<path d="M2881.1,10137.9c-265-40-422-125-561-306c-154-200-294-620-350-1053c-22-167-25-501-5-600c35-175,131-400,250-583
			c99-152,227-316,301-386c180-170,439-254,799-259c142-2,147-1,204,27c249,121,585,577,674,913c34,131,43,395,19,580
			c-33,253-121,665-178,838c-170,515-533,816-998,830C2967.1,10140.9,2898.1,10139.9,2881.1,10137.9z"/>
		<path d="M6067.1,9992.9c-144-18-307-88-433-186c-146-112-368-360-494-553c-259-396-354-791-299-1236c19-151,90-540,111-602
			c80-242,337-473,624-564c228-71,563,26,882,255c439,315,598,628,672,1322c25,228,15,498-24,675c-83,385-315,691-638,846
			C6364.1,9998.9,6228.1,10013.9,6067.1,9992.9z"/>
		<path d="M706.1,7662.9c-164-28-322-108-437-224c-129-131-189-272-232-548c-34-215-40-300-36-542c4-311,40-574,102-755
			c78-227,243-468,448-651c301-269,506-353,855-352c182,0,351,23,428,58c227,103,507,670,538,1090c22,304-108,708-379,1182
			c-286,499-667,756-1114,752C814.1,7671.9,736.1,7667.9,706.1,7662.9z"/>
		<path d="M8149.1,7298.9c-130-23-367-116-503-195c-209-123-441-375-684-743c-212-321-254-512-241-1087c8-321,17-380,79-505
			c77-155,205-287,406-420c189-124,201-129,321-133c126-5,221,12,388,70c230,79,520,242,692,391c306,263,477,700,496,1267
			c13,418-93,781-315,1080c-83,112-181,206-245,235C8433.1,7309.9,8288.1,7323.9,8149.1,7298.9z"/>
		<path d="M4223.1,5658.9c-196-32-404-101-528-175c-96-58-180-125-337-269c-255-232-311-277-604-484c-256-181-477-374-590-515
			c-78-99-169-254-293-501c-199-398-366-801-416-1004c-69-279-61-441,28-617s189-255,463-363c282-112,398-132,775-131
			c253,0,306,3,420,22c243,42,512,123,738,224c268,119,324,133,547,132c191,0,348-21,510-68c47-14,121-32,165-41s199-47,345-85
			c423-110,448-115,650-114c269,0,404,24,555,98c104,52,194,121,247,191c40,53,181,322,222,424c51,126,67,268,47,406
			c-16,107-81,448-97,510c-38,148-176,376-370,610c-134,163-498,527-709,709c-88,76-245,227-350,335c-346,358-498,505-576,557
			c-79,53-223,107-369,139C4591.1,5671.9,4336.1,5676.9,4223.1,5658.9z"/>
	</g>
</svg>
